<svg width="250" height="220" viewBox="0 0 250 220" fill="none" xmlns="http://www.w3.org/2000/svg">
<g clip-path="url(#clip0_111_3)">
<rect width="250" height="220" rx="34" fill="#9780E5"/>
<rect width="250" height="60" transform="matrix(1 0 0 -1 0 60)" fill="#9C34C2"/>
<circle cx="74" cy="35" r="9.5" fill="#FF0000" stroke="black"/>
<circle cx="104" cy="35" r="9.5" fill="#FFDF12" stroke="black"/>
<circle cx="44" cy="35" r="9.5" fill="#2ECC71" stroke="black"/>
<rect x="132" y="25" width="100" height="20" rx="10" fill="#DA6AD0"/>
<path d="M250 220H125C125 220 125.982 209.168 130 204C134.296 198.474 143 195 145.5 195C161.508 195 210 195.5 219 195C220.95 194.892 222.269 194.515 223.5 193C224.601 191.645 224.769 189.731 225 188C226 180.5 224 129.5 225 123.5C226.321 115.575 227.685 109.967 234 105C239.146 100.953 250 100 250 100V220Z" fill="black" fill-opacity="0.35"/>
<path d="M0 0H125C125 0 124.018 10.8316 120 16C115.704 21.5262 107 25 104.5 25C88.4922 25 40 24.5 31 25C29.0504 25.1083 27.7313 25.4845 26.5 27C25.3987 28.3555 25.2308 30.2688 25 32C24 39.5 26 90.5 25 96.5C23.6792 104.425 22.3152 110.033 16 115C10.8543 119.047 0 120 0 120V0Z" fill="white" fill-opacity="0.35"/>
<rect x="26" y="74" width="95" height="105" rx="15" fill="#0099CC"/>
<path d="M10 25C10 16.7157 16.7157 10 25 10H50.5C54.6421 10 58 13.3579 58 17.5C58 21.6421 54.6421 25 50.5 25H32.3864C28.307 25 25 28.307 25 32.3864V50C25 54.1421 21.6421 57.5 17.5 57.5C13.3579 57.5 10 54.1421 10 50V25Z" fill="white"/>
<rect x="130" y="172" width="85" height="7" rx="3.5" fill="#2F2F2F"/>
<rect x="130" y="160" width="85" height="7" rx="3.5" fill="#2F2F2F"/>
<rect x="130" y="148" width="85" height="7" rx="3.5" fill="#2F2F2F"/>
<rect x="130" y="136" width="85" height="7" rx="3.5" fill="#2F2F2F"/>
<rect x="130" y="124" width="47" height="7" rx="3.5" fill="#54D4FF"/>
<rect x="130" y="112" width="47" height="7" rx="3.5" fill="#54D4FF"/>
<rect x="130" y="100" width="47" height="7" rx="3.5" fill="#54D4FF"/>
<rect x="37" y="120" width="47" height="7" rx="3.5" fill="#54D4FF"/>
<rect x="37" y="108" width="47" height="7" rx="3.5" fill="#54D4FF"/>
<rect x="37" y="96" width="47" height="7" rx="3.5" fill="#54D4FF"/>
<rect x="185" y="100" width="30" height="31" rx="2" fill="#DA6AD0"/>
<rect x="220.657" y="85.799" width="20" height="4" rx="2" transform="rotate(-45 220.657 85.799)" fill="#0099CC"/>
<rect x="223.485" y="71.6569" width="20" height="4" rx="2" transform="rotate(45 223.485 71.6569)" fill="#0099CC"/>
<rect x="89" y="160" width="20" height="4" rx="2" fill="#DA6AD0"/>
<rect x="101" y="152" width="20" height="4" rx="2" transform="rotate(90 101 152)" fill="#DA6AD0"/>
</g>
<defs>
<clipPath id="clip0_111_3">
<rect width="250" height="220" rx="34" fill="white"/>
</clipPath>
</defs>
</svg>
