<svg width="38" height="38" viewBox="0 0 38 38" fill="none" xmlns="http://www.w3.org/2000/svg">
<path d="M18.5 0.00195312C20.3002 0.00195312 21.5618 -0.0807676 23 1.00195C24.9732 2.48745 25 7.00195 25 7.00195H35V38.002H3V7.00195H12C12 7.00195 12.0268 2.48745 14 1.00195C15.4382 -0.0807676 16.6998 0.00195312 18.5 0.00195312ZM9 34.002H28V15.002H9V34.002ZM22.6533 20.4082C23.0693 20.4082 23.4695 20.4605 23.8535 20.5645C24.2454 20.6604 24.6094 20.7808 24.9453 20.9248C25.2893 21.0688 25.5897 21.204 25.8457 21.332L24.8369 23.2646C24.8326 23.2621 24.7651 23.2218 24.6338 23.1445C24.4979 23.0646 24.3175 22.9768 24.0938 22.8809C23.8698 22.7769 23.6253 22.6845 23.3613 22.6045C23.0973 22.5245 22.8371 22.4844 22.5811 22.4844C22.3812 22.4844 22.2168 22.5161 22.0889 22.5801C21.961 22.6441 21.8975 22.7525 21.8975 22.9043C21.8975 23.0483 21.9609 23.1649 22.0889 23.2529C22.2168 23.3409 22.3971 23.4202 22.6289 23.4922C22.8689 23.5642 23.1534 23.6528 23.4814 23.7568C24.0094 23.9168 24.4657 24.1006 24.8496 24.3086C25.2334 24.5165 25.5294 24.7844 25.7373 25.1123C25.9453 25.4323 26.0488 25.8605 26.0488 26.3965C26.0488 26.9084 25.9574 27.3404 25.7734 27.6924C25.5894 28.0364 25.3413 28.3125 25.0293 28.5205C24.7173 28.7285 24.3693 28.8806 23.9854 28.9766C23.6014 29.0645 23.2095 29.1084 22.8096 29.1084C22.4016 29.1084 21.9734 29.0683 21.5254 28.9883C21.0854 28.9003 20.6572 28.7846 20.2412 28.6406C19.8253 28.4886 19.4455 28.3123 19.1016 28.1123L20.1094 26.0605C20.1123 26.0623 20.1925 26.1099 20.3496 26.2041C20.5096 26.3001 20.7214 26.4083 20.9854 26.5283C21.2494 26.6483 21.5413 26.7565 21.8613 26.8525C22.1893 26.9485 22.5177 26.9961 22.8457 26.9961C23.1014 26.9961 23.2771 26.9643 23.373 26.9004C23.477 26.8284 23.5293 26.736 23.5293 26.624C23.5291 26.4563 23.4414 26.3282 23.2656 26.2402C23.0896 26.1442 22.8573 26.0566 22.5693 25.9766C22.2895 25.8886 21.9776 25.7887 21.6338 25.6768C21.1378 25.5088 20.7292 25.3203 20.4092 25.1123C20.0893 24.8963 19.8531 24.6444 19.7012 24.3564C19.5492 24.0605 19.4736 23.7041 19.4736 23.2881C19.4737 22.6563 19.6211 22.128 19.917 21.7041C20.213 21.2802 20.6011 20.9601 21.0811 20.7441C21.5691 20.5201 22.0933 20.4082 22.6533 20.4082ZM15.2686 20.4326C16.0844 20.4326 16.7964 20.6043 17.4043 20.9482C18.0122 21.2842 18.4647 21.7321 18.7607 22.292L16.9727 23.5645C16.8687 23.2845 16.7166 23.068 16.5166 22.916C16.3247 22.7642 16.1127 22.6605 15.8809 22.6045C15.657 22.5405 15.4366 22.5088 15.2207 22.5088C14.8847 22.5088 14.5927 22.5769 14.3447 22.7129C14.1047 22.8409 13.9041 23.0125 13.7441 23.2285C13.5922 23.4444 13.4765 23.6844 13.3965 23.9482C13.3245 24.2122 13.2881 24.4763 13.2881 24.7402C13.2881 25.0362 13.3329 25.3208 13.4209 25.5928C13.5089 25.8646 13.6368 26.1083 13.8047 26.3242C13.9726 26.5321 14.1762 26.6964 14.416 26.8164C14.6639 26.9364 14.9403 26.9961 15.2441 26.9961C15.4601 26.9961 15.6803 26.9644 15.9043 26.9004C16.1283 26.8284 16.3326 26.7165 16.5166 26.5645C16.7005 26.4125 16.8405 26.2081 16.9365 25.9521L18.8447 27.0928C18.6768 27.5086 18.3966 27.8643 18.0049 28.1602C17.613 28.4561 17.1687 28.6847 16.6729 28.8447C16.1769 28.9967 15.6843 29.0723 15.1963 29.0723C14.5643 29.0722 13.984 28.9482 13.4561 28.7002C12.9362 28.4442 12.4845 28.1083 12.1006 27.6924C11.7246 27.2684 11.4326 26.7964 11.2246 26.2764C11.0167 25.7485 10.9122 25.2128 10.9121 24.6689C10.9121 24.149 11.0082 23.6405 11.2002 23.1445C11.4002 22.6405 11.6885 22.1844 12.0645 21.7764C12.4404 21.3684 12.8966 21.0447 13.4326 20.8047C13.9766 20.5567 14.5886 20.4326 15.2686 20.4326ZM14.5 9.50195C14.5 9.00195 14.3705 8.87846 14 9.00195C13.1716 9.27811 13.8732 12.002 13 12.002C12.1268 12.002 12.8284 9.27811 12 9.00195C11.6295 8.87846 11.5 9.00195 11.5 9.50195V10.002C11.5 11.5019 11.592 12.502 13 12.502C14.408 12.502 14.3125 12.0019 14.5 10.502C14.5484 10.1144 14.5 10.0019 14.5 9.50195ZM25.5 9.50195C25.5 9.00195 25.3705 8.87846 25 9.00195C24.1716 9.27811 24.8732 12.002 24 12.002C23.1268 12.002 23.8284 9.27811 23 9.00195C22.6295 8.87846 22.5 9.00196 22.5 9.50195C22.5 10.0019 22.4516 9.61445 22.5 10.002C22.6746 11.3991 22.592 12.502 24 12.502C25.408 12.502 25.3254 11.3991 25.5 10.002C25.5484 9.61445 25.5 10.0019 25.5 9.50195ZM18.5 2.00195C17.0785 2.00195 16.0243 2.01633 15 3.00195C13.8397 4.11839 14 7.00195 14 7.00195H23C23 7.00195 23.1603 4.11839 22 3.00195C20.9757 2.01633 19.9215 2.00195 18.5 2.00195Z" fill="black"/>
</svg>
